# MagicaVoxel @ Ephtracy

# group
g 2DTown

# material
mtllib 2DTown.mtl
usemtl palette

# normals
vn -1 0 0
vn 1 0 0
vn 0 0 1
vn 0 0 -1
vn 0 -1 0
vn 0 1 0

# texcoords
vt 0.00195313 0.5
vt 0.705078 0.5
vt 0.728516 0.5
vt 0.982422 0.5
vt 0.986328 0.5
vt 0.990234 0.5

# verts
v -32 0 1
v -32 0 -0
v -32 64 1
v -32 64 -0
v -28 0 -0
v -28 0 -1
v -28 49 -0
v -28 49 -1
v -15 0 -0
v -15 0 -1
v -15 5 -0
v -15 5 -1
v -15 6 -0
v -15 6 -1
v -15 9 -0
v -15 9 -1
v -15 10 -0
v -15 10 -1
v -15 13 -0
v -15 13 -1
v -15 14 -0
v -15 14 -1
v -15 17 -0
v -15 17 -1
v -15 18 -0
v -15 18 -1
v -15 21 -0
v -15 21 -1
v -15 22 -0
v -15 22 -1
v -4 22 -0
v -4 22 -1
v -4 25 -0
v -4 25 -1
v -4 26 -0
v -4 26 -1
v -4 29 -0
v -4 29 -1
v -4 30 -0
v -4 30 -1
v -4 33 -0
v -4 33 -1
v -4 34 -0
v -4 34 -1
v -4 37 -0
v -4 37 -1
v -4 38 -0
v -4 38 -1
v -4 41 -0
v -4 41 -1
v -4 42 -0
v -4 42 -1
v -4 45 -0
v -4 45 -1
v -4 46 -0
v -4 46 -1
v -4 49 -0
v -4 49 -1
v -4 50 -0
v -4 50 -1
v -4 53 -0
v -4 53 -1
v -4 54 -0
v -4 54 -1
v 10 0 -0
v 10 0 -1
v 10 3 -0
v 10 3 -1
v 10 7 -0
v 10 7 -1
v 10 11 -0
v 10 11 -1
v 10 15 -0
v 10 15 -1
v 10 19 -0
v 10 19 -1
v 10 23 -0
v 10 23 -1
v 10 27 -0
v 10 27 -1
v 10 31 -0
v 10 31 -1
v 10 35 -0
v 10 35 -1
v 17 60 -0
v 17 60 -1
v 17 64 -0
v 17 64 -1
v 18 57 -0
v 18 57 -1
v 18 60 -0
v 18 60 -1
v 19 55 -0
v 19 55 -1
v 19 57 -0
v 19 57 -1
v 20 54 -0
v 20 54 -1
v 20 55 -0
v 20 55 -1
v 21 53 -0
v 21 53 -1
v 21 54 -0
v 21 54 -1
v 22 52 -0
v 22 52 -1
v 22 53 -0
v 22 53 -1
v 23 51 -0
v 23 51 -1
v 23 52 -0
v 23 52 -1
v 25 50 -0
v 25 50 -1
v 25 51 -0
v 25 51 -1
v 28 49 -0
v 28 49 -1
v 28 50 -0
v 28 50 -1
v -16 0 -0
v -16 0 -1
v -16 49 -0
v -16 49 -1
v 9 0 -0
v 9 0 -1
v 9 5 -0
v 9 5 -1
v 9 6 -0
v 9 6 -1
v 9 9 -0
v 9 9 -1
v 9 10 -0
v 9 10 -1
v 9 13 -0
v 9 13 -1
v 9 14 -0
v 9 14 -1
v 9 17 -0
v 9 17 -1
v 9 18 -0
v 9 18 -1
v 9 21 -0
v 9 21 -1
v 9 22 -0
v 9 22 -1
v 9 25 -0
v 9 25 -1
v 9 26 -0
v 9 26 -1
v 9 29 -0
v 9 29 -1
v 9 30 -0
v 9 30 -1
v 9 33 -0
v 9 33 -1
v 9 34 -0
v 9 34 -1
v 9 37 -0
v 9 37 -1
v 9 38 -0
v 9 38 -1
v 9 41 -0
v 9 41 -1
v 9 42 -0
v 9 42 -1
v 9 45 -0
v 9 45 -1
v 9 46 -0
v 9 46 -1
v 9 49 -0
v 9 49 -1
v 9 50 -0
v 9 50 -1
v 9 53 -0
v 9 53 -1
v 9 54 -0
v 9 54 -1
v 25 0 -0
v 25 0 -1
v 25 3 -0
v 25 3 -1
v 25 7 -0
v 25 7 -1
v 25 11 -0
v 25 11 -1
v 25 15 -0
v 25 15 -1
v 25 19 -0
v 25 19 -1
v 25 23 -0
v 25 23 -1
v 25 27 -0
v 25 27 -1
v 25 31 -0
v 25 31 -1
v 25 35 -0
v 25 35 -1
v 31 63 -0
v 31 63 -1
v 31 64 -0
v 31 64 -1
v 32 0 1
v 32 0 -0
v 32 49 -0
v 32 49 -1
v 32 57 1
v 32 57 -0
v 32 63 -0
v 32 63 -1
v 32 64 1
v 32 64 -0
v -32 0 1
v -32 64 1
v 25 61 1
v 25 64 1
v 26 59 1
v 26 61 1
v 27 58 1
v 27 59 1
v 29 57 1
v 29 58 1
v 32 0 1
v 32 57 1
v 32 64 1
v -32 0 -0
v -32 64 -0
v -28 0 -0
v -28 49 -0
v -16 0 -0
v -16 49 -0
v -15 0 -0
v -15 5 -0
v -15 6 -0
v -15 9 -0
v -15 10 -0
v -15 13 -0
v -15 14 -0
v -15 17 -0
v -15 18 -0
v -15 21 -0
v -15 22 -0
v -4 22 -0
v -4 25 -0
v -4 26 -0
v -4 29 -0
v -4 30 -0
v -4 33 -0
v -4 34 -0
v -4 37 -0
v -4 38 -0
v -4 41 -0
v -4 42 -0
v -4 45 -0
v -4 46 -0
v -4 49 -0
v -4 50 -0
v -4 53 -0
v -4 54 -0
v 9 0 -0
v 9 5 -0
v 9 6 -0
v 9 9 -0
v 9 10 -0
v 9 13 -0
v 9 14 -0
v 9 17 -0
v 9 18 -0
v 9 21 -0
v 9 22 -0
v 9 25 -0
v 9 26 -0
v 9 29 -0
v 9 30 -0
v 9 33 -0
v 9 34 -0
v 9 37 -0
v 9 38 -0
v 9 41 -0
v 9 42 -0
v 9 45 -0
v 9 46 -0
v 9 49 -0
v 9 50 -0
v 9 53 -0
v 9 54 -0
v 10 0 -0
v 10 3 -0
v 10 7 -0
v 10 11 -0
v 10 15 -0
v 10 19 -0
v 10 23 -0
v 10 27 -0
v 10 31 -0
v 10 35 -0
v 17 60 -0
v 17 64 -0
v 18 57 -0
v 18 60 -0
v 19 55 -0
v 19 57 -0
v 20 54 -0
v 20 55 -0
v 21 53 -0
v 21 54 -0
v 22 52 -0
v 22 53 -0
v 23 51 -0
v 23 52 -0
v 25 0 -0
v 25 3 -0
v 25 7 -0
v 25 11 -0
v 25 15 -0
v 25 19 -0
v 25 23 -0
v 25 27 -0
v 25 31 -0
v 25 35 -0
v 25 50 -0
v 25 51 -0
v 28 49 -0
v 28 50 -0
v 31 63 -0
v 31 64 -0
v 32 0 -0
v 32 49 -0
v 32 63 -0
v 32 64 -0
v -28 0 -1
v -28 49 -1
v -27 13 -1
v -27 15 -1
v -27 21 -1
v -27 23 -1
v -27 29 -1
v -27 31 -1
v -27 38 -1
v -27 40 -1
v -25 13 -1
v -25 15 -1
v -25 21 -1
v -25 23 -1
v -25 29 -1
v -25 31 -1
v -25 38 -1
v -25 40 -1
v -23 5 -1
v -23 7 -1
v -23 9 -1
v -23 11 -1
v -23 13 -1
v -23 15 -1
v -23 17 -1
v -23 19 -1
v -23 21 -1
v -23 23 -1
v -23 25 -1
v -23 27 -1
v -23 29 -1
v -23 31 -1
v -23 35 -1
v -23 37 -1
v -23 42 -1
v -23 44 -1
v -21 5 -1
v -21 7 -1
v -21 9 -1
v -21 11 -1
v -21 13 -1
v -21 15 -1
v -21 17 -1
v -21 19 -1
v -21 21 -1
v -21 23 -1
v -21 25 -1
v -21 27 -1
v -21 29 -1
v -21 31 -1
v -21 35 -1
v -21 37 -1
v -21 42 -1
v -21 44 -1
v -19 5 -1
v -19 7 -1
v -19 17 -1
v -19 19 -1
v -19 25 -1
v -19 27 -1
v -19 32 -1
v -19 34 -1
v -19 39 -1
v -19 41 -1
v -19 45 -1
v -19 47 -1
v -17 5 -1
v -17 7 -1
v -17 17 -1
v -17 19 -1
v -17 25 -1
v -17 27 -1
v -17 32 -1
v -17 34 -1
v -17 39 -1
v -17 41 -1
v -17 45 -1
v -17 47 -1
v -16 0 -1
v -16 49 -1
v -15 0 -1
v -15 5 -1
v -15 6 -1
v -15 9 -1
v -15 10 -1
v -15 13 -1
v -15 14 -1
v -15 17 -1
v -15 18 -1
v -15 21 -1
v -15 22 -1
v -4 22 -1
v -4 25 -1
v -4 26 -1
v -4 29 -1
v -4 30 -1
v -4 33 -1
v -4 34 -1
v -4 37 -1
v -4 38 -1
v -4 41 -1
v -4 42 -1
v -4 45 -1
v -4 46 -1
v -4 49 -1
v -4 50 -1
v -4 53 -1
v -4 54 -1
v 9 0 -1
v 9 5 -1
v 9 6 -1
v 9 9 -1
v 9 10 -1
v 9 13 -1
v 9 14 -1
v 9 17 -1
v 9 18 -1
v 9 21 -1
v 9 22 -1
v 9 25 -1
v 9 26 -1
v 9 29 -1
v 9 30 -1
v 9 33 -1
v 9 34 -1
v 9 37 -1
v 9 38 -1
v 9 41 -1
v 9 42 -1
v 9 45 -1
v 9 46 -1
v 9 49 -1
v 9 50 -1
v 9 53 -1
v 9 54 -1
v 10 0 -1
v 10 3 -1
v 10 7 -1
v 10 11 -1
v 10 15 -1
v 10 19 -1
v 10 23 -1
v 10 27 -1
v 10 31 -1
v 10 35 -1
v 17 60 -1
v 17 64 -1
v 18 57 -1
v 18 60 -1
v 19 55 -1
v 19 57 -1
v 20 54 -1
v 20 55 -1
v 21 53 -1
v 21 54 -1
v 22 52 -1
v 22 53 -1
v 23 51 -1
v 23 52 -1
v 25 0 -1
v 25 3 -1
v 25 7 -1
v 25 11 -1
v 25 15 -1
v 25 19 -1
v 25 23 -1
v 25 27 -1
v 25 31 -1
v 25 35 -1
v 25 50 -1
v 25 51 -1
v 28 49 -1
v 28 50 -1
v 31 63 -1
v 31 64 -1
v 32 49 -1
v 32 63 -1
v -32 0 1
v 32 0 1
v -32 0 -0
v -28 0 -0
v -16 0 -0
v -15 0 -0
v 9 0 -0
v 10 0 -0
v 25 0 -0
v 32 0 -0
v -28 0 -1
v -16 0 -1
v -15 0 -1
v 9 0 -1
v 10 0 -1
v 25 0 -1
v 28 49 -0
v 32 49 -0
v 28 49 -1
v 32 49 -1
v 25 50 -0
v 28 50 -0
v 25 50 -1
v 28 50 -1
v 23 51 -0
v 25 51 -0
v 23 51 -1
v 25 51 -1
v 22 52 -0
v 23 52 -0
v 22 52 -1
v 23 52 -1
v 21 53 -0
v 22 53 -0
v 21 53 -1
v 22 53 -1
v 20 54 -0
v 21 54 -0
v 20 54 -1
v 21 54 -1
v 19 55 -0
v 20 55 -0
v 19 55 -1
v 20 55 -1
v 18 57 -0
v 19 57 -0
v 18 57 -1
v 19 57 -1
v 17 60 -0
v 18 60 -0
v 17 60 -1
v 18 60 -1
v -15 22 -0
v -4 22 -0
v -15 22 -1
v -4 22 -1
v 10 35 -0
v 25 35 -0
v 10 35 -1
v 25 35 -1
v -28 49 -0
v -16 49 -0
v -28 49 -1
v -16 49 -1
v -4 54 -0
v 9 54 -0
v -4 54 -1
v 9 54 -1
v 31 63 -0
v 32 63 -0
v 31 63 -1
v 32 63 -1
v -32 64 1
v 25 64 1
v 32 64 1
v -32 64 -0
v 17 64 -0
v 25 64 -0
v 31 64 -0
v 32 64 -0
v 17 64 -1
v 31 64 -1

# faces
f 3/6/1 2/6/1 1/6/1
f 4/6/1 2/6/1 3/6/1
f 7/4/1 6/4/1 5/4/1
f 8/4/1 6/4/1 7/4/1
f 11/2/1 10/2/1 9/2/1
f 12/2/1 10/2/1 11/2/1
f 13/5/1 12/5/1 11/5/1
f 14/5/1 12/5/1 13/5/1
f 15/2/1 14/2/1 13/2/1
f 16/2/1 14/2/1 15/2/1
f 17/5/1 16/5/1 15/5/1
f 18/5/1 16/5/1 17/5/1
f 19/2/1 18/2/1 17/2/1
f 20/2/1 18/2/1 19/2/1
f 21/5/1 20/5/1 19/5/1
f 22/5/1 20/5/1 21/5/1
f 23/2/1 22/2/1 21/2/1
f 24/2/1 22/2/1 23/2/1
f 25/5/1 24/5/1 23/5/1
f 26/5/1 24/5/1 25/5/1
f 27/2/1 26/2/1 25/2/1
f 28/2/1 26/2/1 27/2/1
f 29/5/1 28/5/1 27/5/1
f 30/5/1 28/5/1 29/5/1
f 33/2/1 32/2/1 31/2/1
f 34/2/1 32/2/1 33/2/1
f 35/5/1 34/5/1 33/5/1
f 36/5/1 34/5/1 35/5/1
f 37/2/1 36/2/1 35/2/1
f 38/2/1 36/2/1 37/2/1
f 39/5/1 38/5/1 37/5/1
f 40/5/1 38/5/1 39/5/1
f 41/2/1 40/2/1 39/2/1
f 42/2/1 40/2/1 41/2/1
f 43/5/1 42/5/1 41/5/1
f 44/5/1 42/5/1 43/5/1
f 45/2/1 44/2/1 43/2/1
f 46/2/1 44/2/1 45/2/1
f 47/5/1 46/5/1 45/5/1
f 48/5/1 46/5/1 47/5/1
f 49/2/1 48/2/1 47/2/1
f 50/2/1 48/2/1 49/2/1
f 51/5/1 50/5/1 49/5/1
f 52/5/1 50/5/1 51/5/1
f 53/2/1 52/2/1 51/2/1
f 54/2/1 52/2/1 53/2/1
f 55/5/1 54/5/1 53/5/1
f 56/5/1 54/5/1 55/5/1
f 57/2/1 56/2/1 55/2/1
f 58/2/1 56/2/1 57/2/1
f 59/5/1 58/5/1 57/5/1
f 60/5/1 58/5/1 59/5/1
f 61/2/1 60/2/1 59/2/1
f 62/2/1 60/2/1 61/2/1
f 63/5/1 62/5/1 61/5/1
f 64/5/1 62/5/1 63/5/1
f 67/4/1 66/4/1 65/4/1
f 68/4/1 66/4/1 67/4/1
f 69/3/1 68/3/1 67/3/1
f 70/3/1 68/3/1 69/3/1
f 71/4/1 70/4/1 69/4/1
f 72/4/1 70/4/1 71/4/1
f 73/3/1 72/3/1 71/3/1
f 74/3/1 72/3/1 73/3/1
f 75/4/1 74/4/1 73/4/1
f 76/4/1 74/4/1 75/4/1
f 77/3/1 76/3/1 75/3/1
f 78/3/1 76/3/1 77/3/1
f 79/4/1 78/4/1 77/4/1
f 80/4/1 78/4/1 79/4/1
f 81/3/1 80/3/1 79/3/1
f 82/3/1 80/3/1 81/3/1
f 83/4/1 82/4/1 81/4/1
f 84/4/1 82/4/1 83/4/1
f 87/1/1 86/1/1 85/1/1
f 88/1/1 86/1/1 87/1/1
f 91/1/1 90/1/1 89/1/1
f 92/1/1 90/1/1 91/1/1
f 95/1/1 94/1/1 93/1/1
f 96/1/1 94/1/1 95/1/1
f 99/1/1 98/1/1 97/1/1
f 100/1/1 98/1/1 99/1/1
f 103/1/1 102/1/1 101/1/1
f 104/1/1 102/1/1 103/1/1
f 107/1/1 106/1/1 105/1/1
f 108/1/1 106/1/1 107/1/1
f 111/1/1 110/1/1 109/1/1
f 112/1/1 110/1/1 111/1/1
f 115/1/1 114/1/1 113/1/1
f 116/1/1 114/1/1 115/1/1
f 119/1/1 118/1/1 117/1/1
f 120/1/1 118/1/1 119/1/1
f 121/4/2 122/4/2 123/4/2
f 123/4/2 122/4/2 124/4/2
f 125/2/2 126/2/2 127/2/2
f 127/2/2 126/2/2 128/2/2
f 127/5/2 128/5/2 129/5/2
f 129/5/2 128/5/2 130/5/2
f 129/2/2 130/2/2 131/2/2
f 131/2/2 130/2/2 132/2/2
f 131/5/2 132/5/2 133/5/2
f 133/5/2 132/5/2 134/5/2
f 133/2/2 134/2/2 135/2/2
f 135/2/2 134/2/2 136/2/2
f 135/5/2 136/5/2 137/5/2
f 137/5/2 136/5/2 138/5/2
f 137/2/2 138/2/2 139/2/2
f 139/2/2 138/2/2 140/2/2
f 139/5/2 140/5/2 141/5/2
f 141/5/2 140/5/2 142/5/2
f 141/2/2 142/2/2 143/2/2
f 143/2/2 142/2/2 144/2/2
f 143/5/2 144/5/2 145/5/2
f 145/5/2 144/5/2 146/5/2
f 145/2/2 146/2/2 147/2/2
f 147/2/2 146/2/2 148/2/2
f 147/5/2 148/5/2 149/5/2
f 149/5/2 148/5/2 150/5/2
f 149/2/2 150/2/2 151/2/2
f 151/2/2 150/2/2 152/2/2
f 151/5/2 152/5/2 153/5/2
f 153/5/2 152/5/2 154/5/2
f 153/2/2 154/2/2 155/2/2
f 155/2/2 154/2/2 156/2/2
f 155/5/2 156/5/2 157/5/2
f 157/5/2 156/5/2 158/5/2
f 157/2/2 158/2/2 159/2/2
f 159/2/2 158/2/2 160/2/2
f 159/5/2 160/5/2 161/5/2
f 161/5/2 160/5/2 162/5/2
f 161/2/2 162/2/2 163/2/2
f 163/2/2 162/2/2 164/2/2
f 163/5/2 164/5/2 165/5/2
f 165/5/2 164/5/2 166/5/2
f 165/2/2 166/2/2 167/2/2
f 167/2/2 166/2/2 168/2/2
f 167/5/2 168/5/2 169/5/2
f 169/5/2 168/5/2 170/5/2
f 169/2/2 170/2/2 171/2/2
f 171/2/2 170/2/2 172/2/2
f 171/5/2 172/5/2 173/5/2
f 173/5/2 172/5/2 174/5/2
f 173/2/2 174/2/2 175/2/2
f 175/2/2 174/2/2 176/2/2
f 175/5/2 176/5/2 177/5/2
f 177/5/2 176/5/2 178/5/2
f 179/4/2 180/4/2 181/4/2
f 181/4/2 180/4/2 182/4/2
f 181/3/2 182/3/2 183/3/2
f 183/3/2 182/3/2 184/3/2
f 183/4/2 184/4/2 185/4/2
f 185/4/2 184/4/2 186/4/2
f 185/3/2 186/3/2 187/3/2
f 187/3/2 186/3/2 188/3/2
f 187/4/2 188/4/2 189/4/2
f 189/4/2 188/4/2 190/4/2
f 189/3/2 190/3/2 191/3/2
f 191/3/2 190/3/2 192/3/2
f 191/4/2 192/4/2 193/4/2
f 193/4/2 192/4/2 194/4/2
f 193/3/2 194/3/2 195/3/2
f 195/3/2 194/3/2 196/3/2
f 195/4/2 196/4/2 197/4/2
f 197/4/2 196/4/2 198/4/2
f 199/1/2 200/1/2 201/1/2
f 201/1/2 200/1/2 202/1/2
f 203/6/2 204/6/2 205/6/2
f 203/6/2 205/6/2 207/6/2
f 205/1/2 206/1/2 208/1/2
f 207/6/2 205/6/2 208/6/2
f 207/1/2 208/1/2 209/1/2
f 208/1/2 206/1/2 209/1/2
f 209/1/2 206/1/2 210/1/2
f 207/1/2 209/1/2 211/1/2
f 211/1/2 209/1/2 212/1/2
f 215/6/3 214/6/3 213/6/3
f 216/6/3 214/6/3 215/6/3
f 217/6/3 215/6/3 213/6/3
f 218/1/3 216/1/3 215/1/3
f 218/6/3 215/6/3 217/6/3
f 219/6/3 217/6/3 213/6/3
f 220/1/3 218/1/3 217/1/3
f 220/6/3 217/6/3 219/6/3
f 221/6/3 219/6/3 213/6/3
f 222/1/3 220/1/3 219/1/3
f 222/6/3 219/6/3 221/6/3
f 223/6/3 221/6/3 213/6/3
f 224/1/3 222/1/3 221/1/3
f 224/6/3 221/6/3 223/6/3
f 225/1/3 216/1/3 218/1/3
f 225/1/3 222/1/3 224/1/3
f 225/1/3 218/1/3 220/1/3
f 225/1/3 220/1/3 222/1/3
f 226/6/4 227/6/4 228/6/4
f 228/6/4 227/6/4 229/6/4
f 229/6/4 227/6/4 231/6/4
f 230/6/4 231/6/4 232/6/4
f 232/6/4 231/6/4 233/6/4
f 233/6/4 231/6/4 234/6/4
f 234/6/4 231/6/4 235/6/4
f 235/6/4 231/6/4 236/6/4
f 236/6/4 231/6/4 237/6/4
f 237/6/4 231/6/4 238/6/4
f 238/6/4 231/6/4 239/6/4
f 239/6/4 231/6/4 240/6/4
f 240/6/4 231/6/4 241/6/4
f 241/6/4 231/6/4 242/6/4
f 242/6/4 231/6/4 243/6/4
f 243/6/4 231/6/4 244/6/4
f 244/6/4 231/6/4 245/6/4
f 245/6/4 231/6/4 246/6/4
f 246/6/4 231/6/4 247/6/4
f 247/6/4 231/6/4 248/6/4
f 248/6/4 231/6/4 249/6/4
f 249/6/4 231/6/4 250/6/4
f 250/6/4 231/6/4 251/6/4
f 251/6/4 231/6/4 252/6/4
f 252/6/4 231/6/4 253/6/4
f 253/6/4 231/6/4 254/6/4
f 254/6/4 231/6/4 255/6/4
f 231/6/4 227/6/4 256/6/4
f 255/6/4 231/6/4 256/6/4
f 256/6/4 227/6/4 257/6/4
f 257/6/4 227/6/4 258/6/4
f 258/6/4 227/6/4 259/6/4
f 259/6/4 227/6/4 286/6/4
f 284/6/4 285/6/4 287/6/4
f 285/6/4 286/6/4 287/6/4
f 260/6/4 261/6/4 287/6/4
f 261/6/4 262/6/4 287/6/4
f 283/6/4 284/6/4 287/6/4
f 282/6/4 283/6/4 287/6/4
f 281/6/4 282/6/4 287/6/4
f 280/6/4 281/6/4 287/6/4
f 279/6/4 280/6/4 287/6/4
f 278/6/4 279/6/4 287/6/4
f 277/6/4 278/6/4 287/6/4
f 276/6/4 277/6/4 287/6/4
f 275/6/4 276/6/4 287/6/4
f 274/6/4 275/6/4 287/6/4
f 273/6/4 274/6/4 287/6/4
f 272/6/4 273/6/4 287/6/4
f 271/6/4 272/6/4 287/6/4
f 270/6/4 271/6/4 287/6/4
f 269/6/4 270/6/4 287/6/4
f 268/6/4 269/6/4 287/6/4
f 267/6/4 268/6/4 287/6/4
f 266/6/4 267/6/4 287/6/4
f 265/6/4 266/6/4 287/6/4
f 264/6/4 265/6/4 287/6/4
f 263/6/4 264/6/4 287/6/4
f 262/6/4 263/6/4 287/6/4
f 287/6/4 286/6/4 288/6/4
f 288/6/4 286/6/4 289/6/4
f 289/6/4 286/6/4 290/6/4
f 290/6/4 286/6/4 291/6/4
f 291/6/4 286/6/4 292/6/4
f 292/6/4 286/6/4 293/6/4
f 293/6/4 286/6/4 294/6/4
f 294/6/4 286/6/4 295/6/4
f 295/6/4 286/6/4 296/6/4
f 286/6/4 227/6/4 297/6/4
f 296/6/4 286/6/4 297/6/4
f 297/6/4 227/6/4 298/6/4
f 296/6/4 297/6/4 299/6/4
f 299/6/4 297/6/4 300/6/4
f 296/6/4 299/6/4 301/6/4
f 301/6/4 299/6/4 302/6/4
f 296/6/4 301/6/4 303/6/4
f 303/6/4 301/6/4 304/6/4
f 296/6/4 303/6/4 305/6/4
f 305/6/4 303/6/4 306/6/4
f 296/6/4 305/6/4 307/6/4
f 307/6/4 305/6/4 308/6/4
f 296/6/4 307/6/4 309/6/4
f 309/6/4 307/6/4 310/6/4
f 296/6/4 309/6/4 320/6/4
f 320/6/4 309/6/4 321/6/4
f 321/6/4 309/6/4 322/6/4
f 318/6/4 319/6/4 323/6/4
f 311/6/4 312/6/4 323/6/4
f 320/6/4 321/6/4 323/6/4
f 319/6/4 320/6/4 323/6/4
f 312/6/4 313/6/4 323/6/4
f 317/6/4 318/6/4 323/6/4
f 316/6/4 317/6/4 323/6/4
f 315/6/4 316/6/4 323/6/4
f 314/6/4 315/6/4 323/6/4
f 313/6/4 314/6/4 323/6/4
f 323/6/4 321/6/4 324/6/4
f 311/6/4 323/6/4 327/6/4
f 327/6/4 323/6/4 328/6/4
f 325/1/4 326/1/4 329/1/4
f 329/1/4 326/1/4 330/1/4
f 331/4/4 332/4/4 333/4/4
f 333/4/4 332/4/4 334/4/4
f 334/4/4 332/4/4 335/4/4
f 335/4/4 332/4/4 336/4/4
f 336/4/4 332/4/4 337/4/4
f 337/4/4 332/4/4 338/4/4
f 338/4/4 332/4/4 339/4/4
f 339/4/4 332/4/4 340/4/4
f 331/4/4 333/4/4 341/4/4
f 333/2/4 334/2/4 341/2/4
f 334/4/4 335/4/4 342/4/4
f 341/2/4 334/2/4 342/2/4
f 335/2/4 336/2/4 343/2/4
f 342/4/4 335/4/4 343/4/4
f 336/4/4 337/4/4 344/4/4
f 343/2/4 336/2/4 344/2/4
f 337/2/4 338/2/4 345/2/4
f 344/4/4 337/4/4 345/4/4
f 338/4/4 339/4/4 346/4/4
f 345/2/4 338/2/4 346/2/4
f 339/2/4 340/2/4 347/2/4
f 346/4/4 339/4/4 347/4/4
f 340/4/4 332/4/4 348/4/4
f 347/2/4 340/2/4 348/2/4
f 346/4/4 347/4/4 349/4/4
f 345/4/4 346/4/4 349/4/4
f 347/4/4 348/4/4 349/4/4
f 344/4/4 345/4/4 349/4/4
f 343/4/4 344/4/4 349/4/4
f 342/4/4 343/4/4 349/4/4
f 341/4/4 342/4/4 349/4/4
f 331/4/4 341/4/4 349/4/4
f 349/4/4 348/4/4 350/4/4
f 350/4/4 348/4/4 351/4/4
f 351/4/4 348/4/4 352/4/4
f 352/4/4 348/4/4 353/4/4
f 353/4/4 348/4/4 354/4/4
f 354/4/4 348/4/4 355/4/4
f 355/4/4 348/4/4 356/4/4
f 356/4/4 348/4/4 357/4/4
f 357/4/4 348/4/4 358/4/4
f 358/4/4 348/4/4 359/4/4
f 359/4/4 348/4/4 360/4/4
f 360/4/4 348/4/4 361/4/4
f 361/4/4 348/4/4 362/4/4
f 362/4/4 348/4/4 363/4/4
f 363/4/4 348/4/4 364/4/4
f 348/4/4 332/4/4 365/4/4
f 364/4/4 348/4/4 365/4/4
f 365/4/4 332/4/4 366/4/4
f 331/4/4 349/4/4 367/4/4
f 349/2/4 350/2/4 367/2/4
f 350/4/4 351/4/4 368/4/4
f 367/2/4 350/2/4 368/2/4
f 351/2/4 352/2/4 369/2/4
f 368/4/4 351/4/4 369/4/4
f 352/4/4 353/4/4 370/4/4
f 369/2/4 352/2/4 370/2/4
f 353/2/4 354/2/4 371/2/4
f 370/4/4 353/4/4 371/4/4
f 354/4/4 355/4/4 372/4/4
f 371/2/4 354/2/4 372/2/4
f 355/2/4 356/2/4 373/2/4
f 372/4/4 355/4/4 373/4/4
f 356/4/4 357/4/4 374/4/4
f 373/2/4 356/2/4 374/2/4
f 357/2/4 358/2/4 375/2/4
f 374/4/4 357/4/4 375/4/4
f 358/4/4 359/4/4 376/4/4
f 375/2/4 358/2/4 376/2/4
f 359/2/4 360/2/4 377/2/4
f 376/4/4 359/4/4 377/4/4
f 360/4/4 361/4/4 378/4/4
f 377/2/4 360/2/4 378/2/4
f 361/2/4 362/2/4 379/2/4
f 378/4/4 361/4/4 379/4/4
f 362/4/4 363/4/4 380/4/4
f 379/2/4 362/2/4 380/2/4
f 363/2/4 364/2/4 381/2/4
f 380/4/4 363/4/4 381/4/4
f 364/4/4 365/4/4 382/4/4
f 381/2/4 364/2/4 382/2/4
f 365/2/4 366/2/4 383/2/4
f 382/4/4 365/4/4 383/4/4
f 366/4/4 332/4/4 384/4/4
f 383/2/4 366/2/4 384/2/4
f 379/4/4 380/4/4 385/4/4
f 382/4/4 383/4/4 385/4/4
f 383/4/4 384/4/4 385/4/4
f 380/4/4 381/4/4 385/4/4
f 378/4/4 379/4/4 385/4/4
f 377/4/4 378/4/4 385/4/4
f 376/4/4 377/4/4 385/4/4
f 375/4/4 376/4/4 385/4/4
f 374/4/4 375/4/4 385/4/4
f 373/4/4 374/4/4 385/4/4
f 372/4/4 373/4/4 385/4/4
f 371/4/4 372/4/4 385/4/4
f 370/4/4 371/4/4 385/4/4
f 369/4/4 370/4/4 385/4/4
f 368/4/4 369/4/4 385/4/4
f 367/4/4 368/4/4 385/4/4
f 331/4/4 367/4/4 385/4/4
f 381/4/4 382/4/4 385/4/4
f 385/4/4 384/4/4 386/4/4
f 386/4/4 384/4/4 387/4/4
f 387/4/4 384/4/4 388/4/4
f 388/4/4 384/4/4 389/4/4
f 389/4/4 384/4/4 390/4/4
f 390/4/4 384/4/4 391/4/4
f 391/4/4 384/4/4 392/4/4
f 392/4/4 384/4/4 393/4/4
f 393/4/4 384/4/4 394/4/4
f 384/4/4 332/4/4 395/4/4
f 394/4/4 384/4/4 395/4/4
f 395/4/4 332/4/4 396/4/4
f 331/4/4 385/4/4 397/4/4
f 385/2/4 386/2/4 397/2/4
f 386/4/4 387/4/4 398/4/4
f 397/2/4 386/2/4 398/2/4
f 387/2/4 388/2/4 399/2/4
f 398/4/4 387/4/4 399/4/4
f 388/4/4 389/4/4 400/4/4
f 399/2/4 388/2/4 400/2/4
f 389/2/4 390/2/4 401/2/4
f 400/4/4 389/4/4 401/4/4
f 390/4/4 391/4/4 402/4/4
f 401/2/4 390/2/4 402/2/4
f 391/2/4 392/2/4 403/2/4
f 402/4/4 391/4/4 403/4/4
f 392/4/4 393/4/4 404/4/4
f 403/2/4 392/2/4 404/2/4
f 393/2/4 394/2/4 405/2/4
f 404/4/4 393/4/4 405/4/4
f 394/4/4 395/4/4 406/4/4
f 405/2/4 394/2/4 406/2/4
f 395/2/4 396/2/4 407/2/4
f 406/4/4 395/4/4 407/4/4
f 396/4/4 332/4/4 408/4/4
f 407/2/4 396/2/4 408/2/4
f 403/4/4 404/4/4 409/4/4
f 406/4/4 407/4/4 409/4/4
f 407/4/4 408/4/4 409/4/4
f 404/4/4 405/4/4 409/4/4
f 402/4/4 403/4/4 409/4/4
f 401/4/4 402/4/4 409/4/4
f 400/4/4 401/4/4 409/4/4
f 399/4/4 400/4/4 409/4/4
f 398/4/4 399/4/4 409/4/4
f 397/4/4 398/4/4 409/4/4
f 331/4/4 397/4/4 409/4/4
f 405/4/4 406/4/4 409/4/4
f 408/4/4 332/4/4 410/4/4
f 409/4/4 408/4/4 410/4/4
f 420/5/4 421/5/4 422/5/4
f 411/2/4 412/2/4 439/2/4
f 412/5/4 413/5/4 440/5/4
f 439/2/4 412/2/4 440/2/4
f 413/2/4 414/2/4 441/2/4
f 440/5/4 413/5/4 441/5/4
f 414/5/4 415/5/4 442/5/4
f 441/2/4 414/2/4 442/2/4
f 415/2/4 416/2/4 443/2/4
f 442/5/4 415/5/4 443/5/4
f 416/5/4 417/5/4 444/5/4
f 443/2/4 416/2/4 444/2/4
f 417/2/4 418/2/4 445/2/4
f 444/5/4 417/5/4 445/5/4
f 418/5/4 419/5/4 446/5/4
f 445/2/4 418/2/4 446/2/4
f 419/2/4 420/2/4 447/2/4
f 446/5/4 419/5/4 447/5/4
f 420/5/4 422/5/4 448/5/4
f 447/2/4 420/2/4 448/2/4
f 422/2/4 423/2/4 449/2/4
f 448/5/4 422/5/4 449/5/4
f 423/5/4 424/5/4 450/5/4
f 449/2/4 423/2/4 450/2/4
f 424/2/4 425/2/4 451/2/4
f 450/5/4 424/5/4 451/5/4
f 425/5/4 426/5/4 452/5/4
f 451/2/4 425/2/4 452/2/4
f 426/2/4 427/2/4 453/2/4
f 452/5/4 426/5/4 453/5/4
f 427/5/4 428/5/4 454/5/4
f 453/2/4 427/2/4 454/2/4
f 428/2/4 429/2/4 455/2/4
f 454/5/4 428/5/4 455/5/4
f 429/5/4 430/5/4 456/5/4
f 455/2/4 429/2/4 456/2/4
f 430/2/4 431/2/4 457/2/4
f 456/5/4 430/5/4 457/5/4
f 431/5/4 432/5/4 458/5/4
f 457/2/4 431/2/4 458/2/4
f 432/2/4 433/2/4 459/2/4
f 458/5/4 432/5/4 459/5/4
f 433/5/4 434/5/4 460/5/4
f 459/2/4 433/2/4 460/2/4
f 434/2/4 435/2/4 461/2/4
f 460/5/4 434/5/4 461/5/4
f 435/5/4 436/5/4 462/5/4
f 461/2/4 435/2/4 462/2/4
f 436/2/4 437/2/4 463/2/4
f 462/5/4 436/5/4 463/5/4
f 437/5/4 438/5/4 464/5/4
f 463/2/4 437/2/4 464/2/4
f 464/5/4 438/5/4 465/5/4
f 476/1/4 477/1/4 479/1/4
f 478/1/4 479/1/4 481/1/4
f 480/1/4 481/1/4 483/1/4
f 482/1/4 483/1/4 485/1/4
f 484/1/4 485/1/4 487/1/4
f 486/1/4 487/1/4 489/1/4
f 466/4/4 467/4/4 490/4/4
f 467/3/4 468/3/4 491/3/4
f 490/4/4 467/4/4 491/4/4
f 468/4/4 469/4/4 492/4/4
f 491/3/4 468/3/4 492/3/4
f 469/3/4 470/3/4 493/3/4
f 492/4/4 469/4/4 493/4/4
f 470/4/4 471/4/4 494/4/4
f 493/3/4 470/3/4 494/3/4
f 471/3/4 472/3/4 495/3/4
f 494/4/4 471/4/4 495/4/4
f 472/4/4 473/4/4 496/4/4
f 495/3/4 472/3/4 496/3/4
f 473/3/4 474/3/4 497/3/4
f 496/4/4 473/4/4 497/4/4
f 474/4/4 475/4/4 498/4/4
f 497/3/4 474/3/4 498/3/4
f 498/4/4 475/4/4 499/4/4
f 488/1/4 489/1/4 501/1/4
f 500/1/4 501/1/4 503/1/4
f 501/1/4 489/1/4 504/1/4
f 502/1/4 503/1/4 504/1/4
f 503/1/4 501/1/4 504/1/4
f 489/1/4 487/1/4 504/1/4
f 483/1/4 481/1/4 504/1/4
f 487/1/4 485/1/4 504/1/4
f 481/1/4 479/1/4 504/1/4
f 485/1/4 483/1/4 504/1/4
f 479/1/4 477/1/4 504/1/4
f 504/1/4 477/1/4 505/1/4
f 502/1/4 504/1/4 506/1/4
f 506/1/4 504/1/4 507/1/4
f 510/6/5 509/6/5 508/6/5
f 511/6/5 509/6/5 510/6/5
f 512/6/5 509/6/5 511/6/5
f 513/6/5 509/6/5 512/6/5
f 514/6/5 509/6/5 513/6/5
f 515/6/5 509/6/5 514/6/5
f 516/6/5 509/6/5 515/6/5
f 517/6/5 509/6/5 516/6/5
f 518/4/5 512/4/5 511/4/5
f 519/4/5 512/4/5 518/4/5
f 520/2/5 514/2/5 513/2/5
f 521/2/5 514/2/5 520/2/5
f 522/4/5 516/4/5 515/4/5
f 523/4/5 516/4/5 522/4/5
f 526/1/5 525/1/5 524/1/5
f 527/1/5 525/1/5 526/1/5
f 530/1/5 529/1/5 528/1/5
f 531/1/5 529/1/5 530/1/5
f 534/1/5 533/1/5 532/1/5
f 535/1/5 533/1/5 534/1/5
f 538/1/5 537/1/5 536/1/5
f 539/1/5 537/1/5 538/1/5
f 542/1/5 541/1/5 540/1/5
f 543/1/5 541/1/5 542/1/5
f 546/1/5 545/1/5 544/1/5
f 547/1/5 545/1/5 546/1/5
f 550/1/5 549/1/5 548/1/5
f 551/1/5 549/1/5 550/1/5
f 554/1/5 553/1/5 552/1/5
f 555/1/5 553/1/5 554/1/5
f 558/1/5 557/1/5 556/1/5
f 559/1/5 557/1/5 558/1/5
f 560/5/6 561/5/6 562/5/6
f 562/5/6 561/5/6 563/5/6
f 564/4/6 565/4/6 566/4/6
f 566/4/6 565/4/6 567/4/6
f 568/4/6 569/4/6 570/4/6
f 570/4/6 569/4/6 571/4/6
f 572/5/6 573/5/6 574/5/6
f 574/5/6 573/5/6 575/5/6
f 576/1/6 577/1/6 578/1/6
f 578/1/6 577/1/6 579/1/6
f 580/6/6 581/6/6 583/6/6
f 583/6/6 581/6/6 584/6/6
f 581/1/6 582/1/6 585/1/6
f 584/6/6 581/6/6 585/6/6
f 585/1/6 582/1/6 586/1/6
f 586/1/6 582/1/6 587/1/6
f 584/1/6 585/1/6 588/1/6
f 585/1/6 586/1/6 588/1/6
f 588/1/6 586/1/6 589/1/6
